<svg xmlns="http://www.w3.org/2000/svg" xmlns:xlink="http://www.w3.org/1999/xlink" version="1.1" x="0px" y="0px" viewBox="0 0 100 100" enable-background="new 0 0 100 100" xml:space="preserve"><g><g><path d="M74.021,68.489l0.02-0.005c0,0,0.051,3.543-0.519,4.98c0,0-8.724,5.665-23.335,5.665l0.008-0.33l-0.028,0.33    c-14.611,0-23.335-5.665-23.335-5.665c-0.571-1.437-0.519-4.98-0.519-4.98c-0.18-2.55,0.036-7.699,4.502-8.834    c5.992-1.522,10.962-3.843,10.962-3.843c0.982-1.352,1.158-4.183,1.158-4.183c-1.875-2.016-2.706-4.54-3.056-6.674    c-0.124,0.091-0.267,0.152-0.424,0.148c-0.563-0.012-1.317-0.835-2.131-3.957c-1.024-3.929-0.063-4.704,0.866-4.697    c0.214,0.002,0.249-0.002,0.435,0.054l0.002-0.086c0,0-2.754-9.183,3.871-13.221c0,0-1.164-0.943-1.074-2.3    c0,0,3.037,0.344,5.948,0.35c1.323,0.003,2.62-0.065,3.593-0.265c0.389-0.08,0.783-0.113,1.173-0.102    c2.734,0.069,5.353,2.198,5.814,4.252c0,0,0.04-0.003,0.113-0.003c0.864-0.002,6.292,0.413,3.688,11.326    c0,0-0.002,0.015-0.006,0.041c0.126-0.027,0.258-0.044,0.391-0.046c0.932-0.012,1.901,0.757,0.874,4.697    c-0.82,3.148-1.58,3.959-2.145,3.957c-0.188-0.001-0.354-0.091-0.494-0.216c-0.343,2.152-1.174,4.71-3.073,6.749l0.101-0.006    c0,0,0.155,2.506,0.991,3.929c0.036,0.018,5.158,2.58,11.128,4.097C73.988,60.784,74.201,65.94,74.021,68.489z M23.209,68.569    c-0.1-1.578-0.057-3.861,0.673-6.024c0.467-1.384,1.162-2.571,2.066-3.526c1.102-1.164,2.482-1.963,4.102-2.375    c1.993-0.506,3.876-1.11,5.48-1.679c-0.336-0.1-0.521-0.141-0.552-0.158c-0.073-0.039-4.126-1.104-5.986-2.115    c-0.437-0.28-0.711-0.489-0.711-0.489v-0.283H28.28V50.19c0,0,5.458,0.167,8.047-2.478c0,0-3.769-1.068-3.091-7.928    c0.677-6.86-0.845-12.884-6.358-12.374c0,0-2.39-2.876-7.147-1.068c-1.633,0.621-6.016,2.191-5.792,11.696    c0.223,9.505-3.378,9.561-3.378,9.561s1.856,2.701,8.159,2.645v1.932c0,0-0.274,0.209-0.711,0.489    c-1.859,1.011-5.913,2.076-5.986,2.115c-0.085,0.046-1.316,0.273-3.736,1.412c-2.42,1.138-2.547,3.612-2.547,3.612v4.007    c3.674,4.211,15.003,4.98,17.469,5.099C23.208,68.784,23.208,68.668,23.209,68.569z M91.714,56.218    c-2.42-1.138-3.651-1.366-3.736-1.412c-0.073-0.039-4.126-1.104-5.986-2.115c-0.437-0.28-0.711-0.489-0.711-0.489v-0.283H81.28    V50.19c0,0,5.458,0.167,8.047-2.478c0,0-3.769-1.068-3.091-7.928c0.677-6.86-0.845-12.884-6.358-12.374    c0,0-2.39-2.876-7.147-1.068c-1.633,0.621-6.016,2.191-5.792,11.696c0.223,9.505-3.378,9.561-3.378,9.561s1.856,2.701,8.159,2.645    v1.932c0,0-0.274,0.209-0.711,0.489c-1.859,1.011-5.913,2.076-5.986,2.115c-0.023,0.012-0.13,0.038-0.317,0.09    c1.639,0.615,3.563,1.259,5.578,1.771c1.622,0.412,3.003,1.211,4.104,2.377c0.904,0.956,1.599,2.143,2.066,3.529    c0.69,2.049,0.766,4.206,0.686,5.769c0.002,0.04,0.004,0.081,0.004,0.122c0.002,0.123,0.003,0.284,0.003,0.475    c2.392-0.114,13.439-0.863,17.115-5.077V59.83C94.261,59.83,94.134,57.356,91.714,56.218z"/></g></g></svg>