<?xml version="1.0" encoding="utf-8"?><!DOCTYPE svg PUBLIC "-//W3C//DTD SVG 1.1//EN" "http://www.w3.org/Graphics/SVG/1.1/DTD/svg11.dtd"><svg version="1.1" xmlns="http://www.w3.org/2000/svg" xmlns:xlink="http://www.w3.org/1999/xlink" x="0px" y="0px" viewBox="0 0 100 100" enable-background="new 21 0 57 100" xml:space="preserve"><path d="M49.307,31.211C32.512,50.236,21.368,61.895,21.368,61.895l14.4,2.397L49.307,31.211z"/><path d="M77.764,42.634c-1.064-1.139-2.855-1.201-3.997-0.132l-6.39,5.967l0.447-9.618c0.07-1.561-1.137-2.885-2.695-2.957
	c-0.266-0.011-0.526,0.019-0.771,0.075l-7.983-2.99l1.585-4.32c0.58,1.847,1.902,3.457,3.795,4.341
	c3.58,1.684,7.849,0.139,9.53-3.442c1.681-3.581,0.14-7.848-3.444-9.53c-2.297-1.076-4.871-0.829-6.868,0.429L67.11,3.723
	c0.542-1.466-0.214-3.092-1.679-3.629c-1.468-0.538-3.094,0.213-3.63,1.679L50.25,33.256c-0.018,0.05-0.035,0.102-0.048,0.152
	l-9.979,23.854l0.036,0.021c-0.113,0.205-0.216,0.414-0.298,0.641L26.895,94.239c-0.792,2.208,0.353,4.639,2.559,5.427
	c0.473,0.174,0.958,0.254,1.435,0.254c1.739,0,3.369-1.078,3.993-2.809l12.941-35.976l2.965,1.509l-6.642,11.377
	c-1.184,2.021-0.5,4.622,1.522,5.805c0.673,0.393,1.409,0.578,2.133,0.578c1.461,0,2.88-0.754,3.669-2.103l9.634-16.496
	c1.183-2.022,0.498-4.622-1.523-5.803c-0.316-0.187-0.649-0.318-0.987-0.414l3.098-6.596l-0.284,6.157
	c-0.054,1.149,0.598,2.216,1.638,2.698c0.38,0.174,0.787,0.261,1.186,0.261c0.703,0,1.397-0.261,1.933-0.762L77.63,46.63
	C78.771,45.565,78.829,43.776,77.764,42.634z"/></svg>