<svg xmlns="http://www.w3.org/2000/svg" xmlns:xlink="http://www.w3.org/1999/xlink" version="1.1" x="0px" y="0px" viewBox="0 0 100 100" enable-background="new 0 0 100 100" xml:space="preserve"><path d="M15.5,7.3l4.8,4.8L20,15.1l2.7,2.7l0.5-6c0-0.4-0.1-0.8-0.4-1.1l-7.5-7.5c-0.4-0.4-1-0.5-1.5-0.3C13.3,3,12.9,3.4,12.9,4  l-0.3,3.6l2.7,2.7L15.5,7.3z"/><path d="M87.9,24.3c0,0-0.1-0.1-0.1-0.1c0,0-0.1-0.1-0.1-0.1c0,0-0.1-0.1-0.1-0.1c0,0-0.1-0.1-0.1-0.1c0,0-0.1-0.1-0.1-0.1  c0,0-0.1-0.1-0.1-0.1c0,0-0.1-0.1-0.1-0.1c0,0-0.1-0.1-0.1-0.1c0,0-0.1-0.1-0.1-0.1c0,0-0.1-0.1-0.1-0.1c0,0-0.1-0.1-0.1-0.1  c0,0-0.1-0.1-0.1-0.1c0,0-0.1-0.1-0.1-0.1c0,0-0.1-0.1-0.1-0.1c0,0-0.1-0.1-0.1-0.1c0,0-0.1-0.1-0.1-0.1c0,0-0.1-0.1-0.1-0.1  c0,0-0.1-0.1-0.1-0.1c0,0-0.1-0.1-0.1-0.1c0,0-0.1-0.1-0.1-0.1c0,0-0.1-0.1-0.1-0.1c0,0-0.1-0.1-0.1-0.1c0,0-0.1-0.1-0.1-0.1  c0,0-0.1-0.1-0.1-0.1c0,0-0.1-0.1-0.1-0.1c0,0-0.1-0.1-0.1-0.1c0,0-0.1-0.1-0.1-0.1c0,0-0.1-0.1-0.1-0.1c0,0-0.1-0.1-0.1-0.1  c-1-1-2-1.9-3.1-2.7c-7.1-5.2-16.4-6.4-26.3-3.3c-8,2.5-15.4,7.4-21.4,13.9l1.6,1.6c5.8-6.2,12.8-10.9,20.5-13.3  c9.2-2.9,17.8-1.8,24.3,3c6.5,4.8,10.1,12.8,10.1,22.5c0,20.3-15.7,41.6-35,47.6c-9.2,2.9-17.9,1.8-24.3-3C25,83,21.4,75,21.4,65.3  c0-10.7,4.4-21.8,11.4-30.7L31.2,33c-7.4,9.3-12.1,21-12,32.3c0,8.8,2.8,16.4,8,21.7c0,0,0.1,0.1,0.1,0.1c0,0,0.1,0.1,0.1,0.1  c0,0,0.1,0.1,0.1,0.1c0,0,0.1,0.1,0.1,0.1c0,0,0.1,0.1,0.1,0.1c0,0,0.1,0.1,0.1,0.1c0,0,0.1,0.1,0.1,0.1c0,0,0.1,0.1,0.1,0.1  c0,0,0.1,0.1,0.1,0.1c0,0,0.1,0.1,0.1,0.1c0,0,0.1,0.1,0.1,0.1c0,0,0.1,0.1,0.1,0.1c0,0,0.1,0.1,0.1,0.1c0,0,0.1,0.1,0.1,0.1  c0,0,0.1,0.1,0.1,0.1c0,0,0.1,0.1,0.1,0.1c0,0,0.1,0.1,0.1,0.1c0,0,0.1,0.1,0.1,0.1c0,0,0.1,0.1,0.1,0.1c0,0,0.1,0.1,0.1,0.1  c0,0,0.1,0.1,0.1,0.1c0,0,0.1,0.1,0.1,0.1c0,0,0.1,0.1,0.1,0.1c0,0,0.1,0.1,0.1,0.1c0,0,0.1,0.1,0.1,0.1c0,0,0.1,0.1,0.1,0.1  c0,0,0.1,0.1,0.1,0.1c0,0,0.1,0.1,0.1,0.1c0,0,0.1,0.1,0.1,0.1c1,1,2,1.9,3.1,2.7c4.5,3.3,9.9,5,15.8,5c3.4,0,6.9-0.6,10.5-1.7  C79.6,89.5,96,67.2,95.9,46C95.9,37.2,93.1,29.6,87.9,24.3z"/><path d="M37.9,79c3.2,2.3,7,3.5,11.2,3.5c2.4,0,4.9-0.4,7.4-1.2c14.2-4.4,25.7-20,25.6-34.9c0-0.9,0-1.8-0.1-2.7  c-0.6-6.1-3.3-11.2-7.7-14.4c-5-3.7-11.6-4.5-18.6-2.4c-5.4,1.7-10.4,5-14.5,9.2l8.5,8.5c2-1.9,4.3-3.3,6.8-4.1  c1.2-0.4,2.5-0.6,3.6-0.6c2,0,3.8,0.6,5.2,1.6c2.4,1.7,3.7,4.6,3.7,8.2c0,7.6-5.9,15.6-13.1,17.9c-3.4,1-6.5,0.7-8.8-1.1  c-2.4-1.7-3.7-4.6-3.7-8.2c0-3.5,1.2-7,3.3-10.1L38,39.9c-4.9,6.4-8,14.3-8,22C30.1,69.2,32.9,75.3,37.9,79z"/><path d="M51.3,53.2c-0.2,0.6-0.3,1.3-0.3,1.9c0,1.5,0.6,2.8,1.7,3.6c0.7,0.5,1.6,0.8,2.5,0.8c0.5,0,1-0.1,1.5-0.2  c2.5-0.8,4.4-3.4,4.4-6c0-1.5-0.6-2.8-1.7-3.6c-1.1-0.8-2.5-1-4-0.6c-0.4,0.1-0.7,0.3-1,0.4l2.7,2.7c0.4,0.4,0.5,1,0.2,1.6  C57,54.7,55.7,56,54.6,56c-0.3,0-0.7-0.1-0.9-0.4L51.3,53.2z"/><path d="M20.6,21.1l33.8,33.8c0.1,0.1,0.1,0.1,0.2,0.1c0.7,0,2.3-1.6,1.8-2.1L22.1,18.6c0,0,0,0,0,0l-5.4-5.4l-6.4-6.4l-0.1-0.1  c-0.6-0.6-1.5-0.6-2,0c-0.6,0.6-0.6,1.5,0,2l0.1,0.1l1.4,1.4c0,0,0,0,0,0l0.7,0.7L9.1,11l-3.6,0.3c-0.6,0-1,0.4-1.2,0.9  c-0.2,0.5-0.1,1.1,0.3,1.5l7.5,7.5c0.3,0.3,0.6,0.4,1,0.4c0,0,0.1,0,0.1,0l6-0.5L20.6,21.1z"/></svg>